<?xml version="1.0" encoding="UTF-8"?> <svg xmlns="http://www.w3.org/2000/svg" width="46" height="46" viewBox="0 0 46 46" fill="none"><path d="M32.872 42.1251L9.46973 0.500122M45.4697 38.7501C45.4697 40.5403 44.7586 42.2572 43.4927 43.5231C42.2268 44.789 40.5099 45.5001 38.7197 45.5001C36.9295 45.5001 35.2126 44.789 33.9467 43.5231C32.6809 42.2572 31.9697 40.5403 31.9697 38.7501C31.9697 36.9599 32.6809 35.243 33.9467 33.9772C35.2126 32.7113 36.9295 32.0001 38.7197 32.0001C40.5099 32.0001 42.2268 32.7113 43.4927 33.9772C44.7586 35.243 45.4697 36.9599 45.4697 38.7501Z" stroke="black" stroke-linecap="round"></path><path d="M13.0978 42.1251L36.5 0.500122M0.500011 38.7501C0.500011 40.5403 1.21117 42.2572 2.47704 43.5231C3.74291 44.789 5.4598 45.5001 7.25001 45.5001C9.04022 45.5001 10.7571 44.789 12.023 43.5231C13.2888 42.2572 14 40.5403 14 38.7501C14 36.9599 13.2888 35.243 12.023 33.9772C10.7571 32.7113 9.04022 32.0001 7.25001 32.0001C5.4598 32.0001 3.74291 32.7113 2.47704 33.9772C1.21117 35.243 0.500011 36.9599 0.500011 38.7501Z" stroke="black" stroke-linecap="round"></path></svg> 