<?xml version="1.0" encoding="UTF-8"?> <svg xmlns="http://www.w3.org/2000/svg" width="16" height="46" viewBox="0 0 16 46" fill="none"><path d="M11.75 45.5V33.0521C11.75 32.0363 12.1451 31.0621 12.8484 30.3438C13.5516 29.6256 14.5054 29.222 15.5 29.222V13.9016C15.5 13.9016 12.6875 11.9865 8 11.9865C3.3125 11.9865 0.5 13.9016 0.5 13.9016V29.222C1.49456 29.222 2.44839 29.6256 3.15165 30.3438C3.85491 31.0621 4.25 32.0363 4.25 33.0521V45.5M7.71875 8.1564C7.71875 8.1564 4.71875 6.24134 4.71875 3.84752C4.71875 2.9597 5.06406 2.10825 5.67871 1.48047C6.29336 0.852684 7.127 0.5 7.99625 0.5C8.8655 0.5 9.69914 0.852684 10.3138 1.48047C10.9284 2.10825 11.2738 2.9597 11.2738 3.84752C11.2738 6.24134 8.28125 8.1564 8.28125 8.1564H7.71875Z" stroke="black"></path></svg> 