<?xml version="1.0" encoding="UTF-8"?> <svg xmlns="http://www.w3.org/2000/svg" width="50" height="50" viewBox="0 0 50 50" fill="none"><g clip-path="url(#clip0_72_53)"><path d="M46.459 13.5529C54.1576 26.7671 46.4717 44.4879 31.7939 48.5558C17.2856 52.5768 3.0542 43.3392 0.716797 28.712C9.14015 29.03 16.8499 25.2957 23.1768 20.1622C23.1938 20.1775 23.2132 20.1935 23.2324 20.212C23.3804 20.3548 23.5597 20.5647 23.7627 20.8341C24.1674 21.3712 24.6306 22.0953 25.084 22.8624C25.8352 24.1335 26.527 25.4734 26.8613 26.212C25.8271 26.8504 24.8678 27.7873 24.0244 28.799C23.0693 29.9447 22.2396 31.2146 21.5977 32.3263L21.5967 32.3273C20.93 33.4832 20.2886 34.7268 19.8301 35.9308C19.3748 37.1264 19.0823 38.3282 19.1592 39.3859C19.2383 40.4735 19.7128 41.4213 20.7695 42.004C21.7862 42.5645 23.2753 42.7495 25.3115 42.5245C27.9784 42.2303 30.2199 40.3437 31.7324 38.0138C33.1523 35.8265 33.9877 33.1637 33.9326 30.839L33.9092 30.379C33.8199 29.222 33.4706 28.2286 33.082 27.3009C32.7102 26.4132 32.3247 25.6248 32.0342 24.7491C32.1424 24.5535 32.3604 24.2623 32.7119 23.879C33.1411 23.4111 33.72 22.8566 34.4053 22.2482C35.7748 21.0324 37.5422 19.624 39.3213 18.2911C41.1003 16.9583 42.8835 15.7071 44.2812 14.8068C44.9813 14.3559 45.5768 13.9976 46.0234 13.7618C46.1981 13.6696 46.3439 13.6016 46.459 13.5529Z" stroke="black"></path><path d="M15.6729 2.28809C23.9726 -1.03784 33.6704 0.309657 40.5332 6.06836C40.952 6.41988 42.403 7.84149 43.6875 9.28027C44.3286 9.99843 44.9127 10.7041 45.3008 11.2705C45.4967 11.5564 45.6283 11.7854 45.6953 11.9502C45.6993 11.96 45.7018 11.9698 45.7051 11.9785L30.5488 22.8799C30.3686 22.4933 30.1064 22.1024 29.8203 21.7305C29.3326 21.0963 28.7098 20.4308 28.0996 19.8057C27.4787 19.1696 26.8831 18.5868 26.4082 18.0791C26.173 17.8277 25.9794 17.607 25.8379 17.4219C25.6874 17.225 25.6306 17.1128 25.6182 17.0703V17.0693C25.5705 16.9039 25.5867 16.5687 25.71 16.0352C25.8273 15.5272 26.0184 14.9296 26.2324 14.292C26.4434 13.6634 26.6767 12.9939 26.8633 12.374C27.0485 11.7587 27.2011 11.1508 27.2383 10.6396V10.6387C27.2914 9.90003 27.1739 9.27231 26.8877 8.77344C26.5979 8.26861 26.1576 7.93606 25.6455 7.75586C24.6487 7.4053 23.392 7.62894 22.2715 8.16016C21.1368 8.69817 20.0453 9.59521 19.3691 10.7334C18.6857 11.8841 18.4268 13.2874 18.9951 14.7715C19.1102 15.0724 19.3837 15.4514 19.6621 15.8086C19.9537 16.1828 20.3104 16.6059 20.6348 17C20.9661 17.4025 21.2634 17.7749 21.4639 18.0732C21.5282 18.1689 21.5754 18.2497 21.6104 18.3145C18.301 21.3057 13.9795 23.9449 9.68945 25.248L9.26562 25.3721C8.85001 25.4894 8.04197 25.7242 7.25488 25.9307C6.86147 26.0339 6.47887 26.1288 6.1582 26.1973C5.82202 26.269 5.59832 26.3018 5.49902 26.3018H0.582031C-0.31184 16.1667 6.20685 6.08176 15.6729 2.28809Z" stroke="black"></path><path d="M27.9043 28.0618C28.2372 28.8794 28.4217 29.9347 28.4434 31.1067C28.4681 32.4436 28.28 33.8966 27.8887 35.2551C27.1157 37.9385 25.624 40.0446 23.6221 40.4436L23.4258 40.4768C22.6485 40.5865 22.138 40.5215 21.8145 40.3811C21.5147 40.251 21.3423 40.0428 21.251 39.7483C21.1527 39.4312 21.1459 38.9981 21.2451 38.4543C21.3433 37.9165 21.5378 37.3071 21.8027 36.6594C22.8689 34.0526 24.9702 31.0616 25.8184 30.0803L25.8174 30.0793C25.9965 29.8733 26.5602 29.2403 27.1289 28.7034C27.4165 28.4319 27.6875 28.203 27.9004 28.0647C27.9018 28.0638 27.9029 28.0626 27.9043 28.0618Z" stroke="black"></path><path d="M23.5576 10.1023C23.9434 9.97757 24.2634 9.99913 24.4785 10.1208C24.6501 10.2181 24.841 10.4278 24.9268 10.8865L24.9561 11.0994C25.0307 11.8485 24.8758 12.5414 24.6387 13.2751C24.4581 13.8338 24.2114 14.4613 24.0273 15.1101C23.9917 15.0708 23.9528 15.0263 23.9121 14.9753C23.6282 14.6201 23.4159 14.2335 23.2783 14.031C23.073 13.7287 22.7656 13.2743 22.5088 12.8152C22.3803 12.5855 22.2695 12.3641 22.1924 12.1677C22.112 11.963 22.0834 11.8235 22.083 11.7458V11.7439L22.0889 11.6287C22.119 11.3579 22.2626 11.0633 22.5117 10.7869C22.7941 10.4736 23.1772 10.2254 23.5576 10.1023Z" stroke="black"></path></g><defs><clipPath id="clip0_72_53"><rect width="50" height="50" fill="white"></rect></clipPath></defs></svg> 