<?xml version="1.0"?> <svg xmlns="http://www.w3.org/2000/svg" width="22" height="46" viewBox="0 0 22 46" fill="none"><path d="M18.5 12.4985H3.5V39.4997H18.5V12.4985ZM18.5 12.4985L3.5 22.999M3.5 30.4993L18.5 19.9988M3.5 37.9997L18.5 27.4992M0.5 39.4997H21.5V43.4999C21.5 44.0304 21.2893 44.5391 20.9142 44.9142C20.5391 45.2893 20.0304 45.5 19.5 45.5H2.5C1.96957 45.5 1.46086 45.2893 1.08579 44.9142C0.710714 44.5391 0.5 44.0304 0.5 43.4999V39.4997ZM19.486 12.4985C19.9656 11.141 20.1125 9.6883 19.9144 8.26228C19.7164 6.83626 19.1792 5.47856 18.3478 4.30314C17.5165 3.12772 16.4154 2.16889 15.1368 1.50713C13.8583 0.845375 12.4396 0.5 11 0.5C9.56036 0.5 8.14172 0.845375 6.86317 1.50713C5.58462 2.16889 4.48347 3.12772 3.65215 4.30314C2.82083 5.47856 2.28361 6.83626 2.08556 8.26228C1.88752 9.6883 2.03444 11.141 2.514 12.4985H19.486Z" stroke="black" stroke-linecap="round" stroke-linejoin="round"></path></svg>